<svg id="visual" viewBox="0 0 900 600" width="900" height="600" xmlns="http://www.w3.org/2000/svg" xmlns:xlink="http://www.w3.org/1999/xlink" version="1.1"><path d="M0 542L21.5 532.3C43 522.7 86 503.3 128.8 495.5C171.7 487.7 214.3 491.3 257.2 502.2C300 513 343 531 385.8 531.7C428.7 532.3 471.3 515.7 514.2 496.8C557 478 600 457 642.8 443.2C685.7 429.3 728.3 422.7 771.2 442C814 461.3 857 506.7 878.5 529.3L900 552L900 601L878.5 601C857 601 814 601 771.2 601C728.3 601 685.7 601 642.8 601C600 601 557 601 514.2 601C471.3 601 428.7 601 385.8 601C343 601 300 601 257.2 601C214.3 601 171.7 601 128.8 601C86 601 43 601 21.5 601L0 601Z" fill="#fed42a" stroke-linecap="round" stroke-linejoin="miter"></path></svg>