<svg width="1440" height="209" viewBox="0 0 1440 209" fill="none" xmlns="http://www.w3.org/2000/svg">
<path d="M-9 64H39.9C88.8 64 186.6 64 284.4 74.7C382.2 85 480 107 577.8 138.7C675.6 171 773.4 213 871.2 208C969 203 1066.8 149 1164.6 128C1262.4 107 1360.2 117 1409.1 122.7L1458 128V-1.52588e-05H1409.1C1360.2 -1.52588e-05 1262.4 -1.52588e-05 1164.6 -1.52588e-05C1066.8 -1.52588e-05 969 -1.52588e-05 871.2 -1.52588e-05C773.4 -1.52588e-05 675.6 -1.52588e-05 577.8 -1.52588e-05C480 -1.52588e-05 382.2 -1.52588e-05 284.4 -1.52588e-05C186.6 -1.52588e-05 88.8 -1.52588e-05 39.9 -1.52588e-05H-9V64Z" fill="#FED42A"/>
</svg>
